<svg id="svg-logo" xmlns="http://www.w3.org/2000/svg" viewBox="0 0 300 160" preserveAspectRatio="xMidYMin meet">
	<defs>
		<style>.cls-1{ fill-rule: evenodd;}</style>
	</defs>
	<path style="fill:#ffd961;" id="wars" class="cls-1" d="M61.9,151.594h22.72l17.5-69.8H79.4l-6.478,30.164L63.2,81.791H42.318L34,111.955,24.433,81.791H1.713l21.27,69.8H45.7L53.05,122.01Zm54.769,0,4.4-12.569H141.8l4.4,12.569h26.393l-23.348-69.8h-34.66l-22.961,69.8h25.04Zm24.557-26.684h-19.24l10.007-27.65Zm55.639,26.684V128.536L219,151.594h27.554V130.808H225.671l-5.22-6.671q8.121-1.934,12.471-5.318a17.889,17.889,0,0,0,6.091-8.411q1.74-5.026-.193-14.308a21.356,21.356,0,0,0-7.928-9.861q-5.415-3.673-13.825-4.447h-45.44v69.8h25.234Zm17.547-52.4a5.238,5.238,0,0,1,2.876,1.281q1.716,1.282,1.958,5.294-0.1,4.2-1.74,5.244a5.781,5.781,0,0,1-3.045,1.04h-17.6V99.193h17.547Zm87.06-17.4H263.376q-13.341,0-15.855,12.955T261.83,123.17q10.2,8.025-3.481,7.638H243.654v20.786h37.125q15.081-2.514,15.372-15.469t-15.372-26.684q-8.749-7.251,3.674-6.864h17.015V81.791Z" />
	<path style="fill:#ffd961;" id="star" class="cls-1" d="M76.785,2.991H38.693q-13.342,0-15.856,12.955T37.146,44.37q10.2,8.025-3.48,7.638H18.97V72.794H56.1q15.082-2.513,15.372-15.469T56.1,30.641q-8.75-7.251,3.674-6.864H76.785V2.991Zm-3.432,0V23.777h22.14V72.794h22.72V23.777h22.14V2.991h-67Zm87.688,69.8,4.4-12.568h20.738l4.4,12.568H216.97l-23.348-69.8h-34.66L136,72.794h25.04ZM185.6,46.11h-19.24l10.007-27.65Zm55.639,26.683V49.736l22.139,23.058H290.93V52.008H270.047l-5.22-6.671q8.121-1.933,12.471-5.317a17.891,17.891,0,0,0,6.091-8.411q1.74-5.027-.193-14.309a21.356,21.356,0,0,0-7.928-9.861q-5.415-3.673-13.825-4.447H216v69.8h25.234Zm17.547-52.4a5.236,5.236,0,0,1,2.876,1.281q1.716,1.281,1.958,5.293-0.1,4.206-1.74,5.245a5.785,5.785,0,0,1-3.045,1.039h-17.6V20.393h17.547Z"/>
</svg>